<?xml version="1.0" encoding="iso-8859-1"?>
<!-- Uploaded to: SVG Repo, www.svgrepo.com, Generator: SVG Repo Mixer Tools -->
<svg fill="#888888" height="800px" width="800px" version="1.1" id="Layer_1" xmlns="http://www.w3.org/2000/svg" xmlns:xlink="http://www.w3.org/1999/xlink" 
	 viewBox="0 0 512 512" xml:space="preserve">
<g>
	<g>
		<path d="M369.116,452.465H175.628v-53.581h83.349c16.414,0,29.767-13.354,29.767-29.767s-13.354-29.767-29.767-29.767H145.86
			c-16.414,0-29.767,13.354-29.767,29.767v83.349H59.535V285.767h83.349c16.414,0,29.767-13.354,29.767-29.767
			s-13.354-29.767-29.767-29.767H59.535v-83.346c0-16.414-13.354-29.767-29.767-29.767S0,126.472,0,142.886v339.346
			C0,498.646,13.354,512,29.767,512h339.349c16.414,0,29.767-13.354,29.767-29.767S385.531,452.465,369.116,452.465z"/>
	</g>
</g>
<g>
	<g>
		<path d="M482.233,0H29.767C13.354,0,0,13.354,0,29.767s13.354,29.767,29.767,29.767h83.349v83.349
			c0,16.414,13.354,29.767,29.767,29.767s29.767-13.354,29.767-29.767V59.535h166.698v83.349c0,16.414,13.354,29.767,29.767,29.767
			h83.349v53.577H285.767v-77.72c0-16.414-13.354-29.767-29.767-29.767s-29.767,13.354-29.767,29.767v107.488
			c0,16.414,13.354,29.767,29.767,29.767h83.349v83.349c0,16.414,13.354,29.767,29.767,29.767s29.767-13.354,29.767-29.767v-83.349
			h53.581v196.47c0,16.414,13.354,29.767,29.767,29.767S512,498.646,512,482.233V29.767C512,13.354,498.646,0,482.233,0z
			 M452.465,113.116h-53.581V59.535h53.581V113.116z"/>
	</g>
</g>
</svg>
